#tb 0: 1/25
#media_type 0: video
#codec_id 0: rawvideo
#dimensions 0: 256x1536
#sar 0: 0/1
0,          0,          0,        1,   786432, 0x5a07f1fe
0,          1,          1,        1,   786432, 0x5b5acaed
0,          2,          2,        1,   786432, 0x1a9aacb5
0,          3,          3,        1,   786432, 0x12ddf22d
0,          4,          4,        1,   786432, 0xde2515f8
